# xmcd CD database file
#
# Track frame offsets:
#	150
#	21335
#	41587
#	62842
#
# Disc length: 1105 seconds
#
# Revision: 0
# Processed by: cddbd v1.5.1PL0 Copyright (c) Steve Scherf et al.
# Submitted via: CDex 1.51
#
DISCID=30044f04
DTITLE=西角 茉美 - マリオネット
DYEAR=2000
DGENRE=Anime
TTITLE0=マリオネット
TTITLE1=Midnight Cinderella
TTITLE2=マリオネット (オリジナル・カラオケ)
TTITLE3=Midnight Cinderella (オリジナル・カラオケ)
EXTD=YEAR: 2000
EXTT0=
EXTT1=
EXTT2=
EXTT3=
PLAYORDER=
